<svg id="Layer_1" data-name="Layer 1" xmlns="http://www.w3.org/2000/svg" viewBox="0 0 622.26 129.1"><defs><style>.cls-1{fill:#fff;}</style></defs><path class="cls-1" d="M14.11,55c.3,2.47.93,4.23,1.92,5.27Q18.63,63,25.64,63a14.77,14.77,0,0,0,6.55-1.22,4.09,4.09,0,0,0,.47-7.23q-1.95-1.22-14.56-4.2Q9,48.14,5.32,44.78T1.61,35.21a16.59,16.59,0,0,1,5.8-12.68q5.81-5.3,16.32-5.29,10,0,16.27,4T47.22,35H33.3a8.22,8.22,0,0,0-1.52-4.25c-1.53-1.88-4.14-2.83-7.83-2.83q-4.56,0-6.49,1.42a4.06,4.06,0,0,0-1.93,3.32,3.62,3.62,0,0,0,2,3.46q2.07,1.13,14.53,3.86,8.32,2,12.47,5.91a13.44,13.44,0,0,1,4.1,10,16.14,16.14,0,0,1-5.89,12.91q-5.9,5-18.23,5Q12,73.78,6,68.48A17.23,17.23,0,0,1,0,55Z"/><path class="cls-1" d="M48.47,29.15V19.24h7.42V4.39H69.66V19.24H78.3v9.91H69.66V57.28c0,2.18.27,3.54.83,4.07s2.24.81,5.08.81l1.34,0c.47,0,.93,0,1.39-.07v10.4l-6.59.25q-9.87.33-13.48-3.42-2.34-2.4-2.34-7.38V29.15Z"/><path class="cls-1" d="M116.92,19.83a21.69,21.69,0,0,1,9.2,7.87,26.32,26.32,0,0,1,4.24,11,68.76,68.76,0,0,1,.45,10.57H92.05q.33,8,5.57,11.23a14.15,14.15,0,0,0,7.67,2,10.79,10.79,0,0,0,10.59-6.1h14.21q-.57,4.73-5.16,9.62-7.16,7.76-20,7.76a29,29,0,0,1-18.75-6.55Q78,60.69,78,45.92q0-13.83,7.33-21.21t19-7.38A30.36,30.36,0,0,1,116.92,19.83Zm-20.82,12a14.47,14.47,0,0,0-3.71,8.24h24q-.39-5.55-3.71-8.41a12.21,12.21,0,0,0-8.25-2.87C100.83,28.81,98.07,29.82,96.1,31.85Z"/><path class="cls-1" d="M184.56,51.73,127.48,73.61V60L168.2,45.46,127.48,31V17.36l57.08,22Z"/><path class="cls-1" d="M220.93,19.83a21.69,21.69,0,0,1,9.2,7.87,26.19,26.19,0,0,1,4.24,11,68.51,68.51,0,0,1,.46,10.57H196.06q.33,8,5.57,11.23a14.18,14.18,0,0,0,7.67,2A11.77,11.77,0,0,0,217,60.06a11.61,11.61,0,0,0,2.86-3.66H234.1q-.56,4.73-5.16,9.62-7.16,7.76-20,7.76a29,29,0,0,1-18.75-6.55q-8.11-6.54-8.12-21.31,0-13.83,7.33-21.21t19-7.38A30.31,30.31,0,0,1,220.93,19.83Zm-20.82,12a14.46,14.46,0,0,0-3.7,8.24h24q-.37-5.55-3.71-8.41a12.19,12.19,0,0,0-8.25-2.87Q203.07,28.81,200.11,31.85Z"/><path class="cls-1" d="M279.78,21.8Q285,26.12,285,36.13V72H270.75V39.6a15,15,0,0,0-1.11-6.45q-2-4.09-7.76-4.1-7,0-9.64,6a20.64,20.64,0,0,0-1.36,8.1V72H237V18.85h13.48v7.76a23.7,23.7,0,0,1,5.06-5.91,17.49,17.49,0,0,1,10.84-3.22Q274.56,17.48,279.78,21.8Z"/><path class="cls-1" d="M350.41,19.83a21.63,21.63,0,0,1,9.2,7.87,26.06,26.06,0,0,1,4.24,11,67.25,67.25,0,0,1,.46,10.57H325.55q.31,8,5.56,11.23a14.21,14.21,0,0,0,7.68,2,10.83,10.83,0,0,0,10.59-6.1h14.2Q363,61.13,358.42,66q-7.14,7.76-20,7.76a29,29,0,0,1-18.74-6.55q-8.13-6.54-8.13-21.31,0-13.83,7.34-21.21t19-7.38A30.31,30.31,0,0,1,350.41,19.83Zm-20.81,12a14.41,14.41,0,0,0-3.71,8.24h24q-.37-5.55-3.7-8.41a12.22,12.22,0,0,0-8.26-2.87Q332.54,28.81,329.6,31.85Z"/><path class="cls-1" d="M377.14,55q.44,3.71,1.91,5.27Q381.66,63,388.67,63a14.77,14.77,0,0,0,6.55-1.22,4.09,4.09,0,0,0,.47-7.23q-1.95-1.22-14.56-4.2-9.08-2.25-12.78-5.61t-3.71-9.57a16.59,16.59,0,0,1,5.8-12.68q5.79-5.3,16.32-5.29,10,0,16.27,4T410.24,35H396.33a8.22,8.22,0,0,0-1.52-4.25c-1.53-1.88-4.15-2.83-7.83-2.83q-4.56,0-6.49,1.42a4.07,4.07,0,0,0-1.94,3.32,3.63,3.63,0,0,0,2.06,3.46q2.06,1.13,14.53,3.86,8.31,2,12.47,5.91a13.44,13.44,0,0,1,4.1,10,16.15,16.15,0,0,1-5.9,12.91q-5.9,5-18.22,5-12.57,0-18.57-5.3A17.23,17.23,0,0,1,363,55Z"/><path class="cls-1" d="M461.72,24.46q6.51,6.88,6.51,20.22,0,14.06-6.36,21.43a20.65,20.65,0,0,1-16.39,7.38,17.18,17.18,0,0,1-10.62-3.18,20.64,20.64,0,0,1-4.52-5.12V92.92H416.57V18.75H429.9v7.86a22.45,22.45,0,0,1,4.82-5.47,17.79,17.79,0,0,1,11.1-3.56A21,21,0,0,1,461.72,24.46ZM451,34.47q-2.84-4.72-9.2-4.73-7.65,0-10.51,7.17a27.16,27.16,0,0,0-1.48,9.67q0,9.29,5,13a11.46,11.46,0,0,0,7,2.2,10.17,10.17,0,0,0,9-4.5q3.09-4.49,3.09-12A20.81,20.81,0,0,0,451,34.47Z"/><path class="cls-1" d="M477.88,20.8h14.8V35.4h-14.8Zm0,36.57h14.8V72h-14.8Z"/><path class="cls-1" d="M544.27,21.8q5.22,4.32,5.22,14.33V72H535.23V39.6a15,15,0,0,0-1.11-6.45q-2-4.09-7.75-4.1-7,0-9.65,6a20.64,20.64,0,0,0-1.36,8.1V72H501.45V18.85h13.47v7.76A23.91,23.91,0,0,1,520,20.7a17.51,17.51,0,0,1,10.84-3.22Q539,17.48,544.27,21.8Z"/><path class="cls-1" d="M578.51,39.6a22.23,22.23,0,0,0,5.56-1.22q3-1.27,3-4,0-3.27-2.3-4.51A14.57,14.57,0,0,0,578,28.66c-3.33,0-5.69.82-7.08,2.44A10.12,10.12,0,0,0,569,36H555.53a20.36,20.36,0,0,1,3.92-11.48q5.53-7,19-7A33.92,33.92,0,0,1,594.07,21q6.82,3.47,6.82,13.08V58.45q0,2.53.1,6.15a7.6,7.6,0,0,0,.83,3.71,4.94,4.94,0,0,0,2,1.61v2H588.73a15.47,15.47,0,0,1-.88-3c-.16-1-.29-2-.39-3.23A28.41,28.41,0,0,1,580.78,71a20.13,20.13,0,0,1-10.21,2.59,17.62,17.62,0,0,1-12-4.12q-4.74-4.12-4.74-11.7,0-9.81,7.62-14.21,4.18-2.39,12.3-3.41ZM587,46.09a15.47,15.47,0,0,1-2.7,1.35,22.51,22.51,0,0,1-3.73,1l-3.17.58a21.09,21.09,0,0,0-6.4,1.91,6.36,6.36,0,0,0-3.29,5.91q0,3.56,2,5.15a7.64,7.64,0,0,0,4.89,1.59,14.52,14.52,0,0,0,8.4-2.64q3.84-2.64,4-9.62Z"/><path class="cls-1" d="M622.26,72H608.34V0h13.92Z"/><path class="cls-1" d="M20.31,121.8a6,6,0,0,1-4,1.16H13v5.7H9.75V112.82h6.8a5.47,5.47,0,0,1,3.75,1.23,4.78,4.78,0,0,1,1.4,3.79C21.7,119.71,21.24,121,20.31,121.8Zm-2.53-5.7a2.66,2.66,0,0,0-1.76-.53H13v4.67h3a2.52,2.52,0,0,0,1.76-.57,2.32,2.32,0,0,0,.63-1.81A2.18,2.18,0,0,0,17.78,116.1Z"/><path class="cls-1" d="M43.3,113.23a3.86,3.86,0,0,1,1.48,1.11,4.86,4.86,0,0,1,.8,1.33,4.55,4.55,0,0,1,.29,1.66,4.7,4.7,0,0,1-.57,2.22,3.18,3.18,0,0,1-1.88,1.54A3,3,0,0,1,45,122.35a5.11,5.11,0,0,1,.46,2.47v1.07a7.79,7.79,0,0,0,.09,1.47,1.28,1.28,0,0,0,.61.9v.4H42.48c-.1-.35-.18-.64-.22-.85a7.76,7.76,0,0,1-.14-1.37l0-1.47a3,3,0,0,0-.52-2,2.73,2.73,0,0,0-1.89-.5H36.46v6.21H33.23V112.82H40.8A6.88,6.88,0,0,1,43.3,113.23Zm-6.84,2.34v4.26H40a3.79,3.79,0,0,0,1.59-.26,1.78,1.78,0,0,0,.94-1.78,2,2,0,0,0-.91-1.94,3.36,3.36,0,0,0-1.53-.28Z"/><path class="cls-1" d="M70,127.25a6.9,6.9,0,0,1-5.19,1.85,6.89,6.89,0,0,1-5.18-1.85,8.52,8.52,0,0,1-2.41-6.53q0-4.35,2.41-6.53a6.89,6.89,0,0,1,5.18-1.85A6.9,6.9,0,0,1,70,114.19q2.4,2.18,2.4,6.53A8.55,8.55,0,0,1,70,127.25ZM68,124.84a7.9,7.9,0,0,0,0-8.24,3.78,3.78,0,0,0-3.12-1.46,3.83,3.83,0,0,0-3.13,1.45,7.86,7.86,0,0,0,0,8.25,4.09,4.09,0,0,0,6.25,0Z"/><path class="cls-1" d="M94.4,117.76a3.1,3.1,0,0,0-1.84-2.26,4.43,4.43,0,0,0-1.81-.36,3.94,3.94,0,0,0-3.15,1.45,6.52,6.52,0,0,0-1.23,4.33c0,2,.45,3.32,1.34,4.13a4.33,4.33,0,0,0,3,1.21,4,4,0,0,0,2.73-1,4.12,4.12,0,0,0,1.31-2.51H91.11v-2.64h6.6v8.5h-2.2l-.33-2a7.39,7.39,0,0,1-1.72,1.58,6,6,0,0,1-3.22.81,6.71,6.71,0,0,1-5.16-2.18,8.34,8.34,0,0,1-2.09-6,8.76,8.76,0,0,1,2.12-6.17,7.21,7.21,0,0,1,5.59-2.31A7.32,7.32,0,0,1,95.55,114a5.69,5.69,0,0,1,2.1,3.81Z"/><path class="cls-1" d="M119.81,113.23a3.86,3.86,0,0,1,1.48,1.11,4.86,4.86,0,0,1,.8,1.33,4.35,4.35,0,0,1,.29,1.66,4.7,4.7,0,0,1-.57,2.22,3.15,3.15,0,0,1-1.88,1.54,3,3,0,0,1,1.56,1.26,5.25,5.25,0,0,1,.45,2.47v1.07a7.79,7.79,0,0,0,.09,1.47,1.31,1.31,0,0,0,.61.9v.4H119c-.1-.35-.17-.64-.22-.85a8.83,8.83,0,0,1-.14-1.37l0-1.47a3,3,0,0,0-.52-2,2.73,2.73,0,0,0-1.89-.5H113v6.21h-3.23V112.82h7.57A6.84,6.84,0,0,1,119.81,113.23ZM113,115.57v4.26h3.56a3.79,3.79,0,0,0,1.59-.26,1.78,1.78,0,0,0,.94-1.78,2,2,0,0,0-.9-1.94,3.38,3.38,0,0,0-1.54-.28Z"/><path class="cls-1" d="M138.88,112.82h3.74l5.61,15.84h-3.59l-1-3.26h-5.83l-1.07,3.26h-3.46Zm-.22,9.85h4.06l-2-6.23Z"/><path class="cls-1" d="M169.54,112.82h4.76v15.84h-3.08V118c0-.31,0-.74,0-1.3s0-1,0-1.28l-3,13.29H165l-3-13.29c0,.3,0,.73,0,1.28s0,1,0,1.3v10.71H159V112.82h4.81l2.88,12.45Z"/><path class="cls-1" d="M196.67,112.82h4.76v15.84h-3.08V118c0-.31,0-.74,0-1.3s0-1,0-1.28l-3,13.29h-3.22l-3-13.29c0,.3,0,.73,0,1.28s0,1,0,1.3v10.71h-3.09V112.82h4.82l2.88,12.45Z"/><path class="cls-1" d="M225,115.63h-8.38V119h7.69v2.75h-7.69v4.07h8.77v2.85h-12V112.82H225Z"/><path class="cls-1" d="M246.91,113.23a3.89,3.89,0,0,1,1.49,1.11,4.83,4.83,0,0,1,.79,1.33,4.35,4.35,0,0,1,.29,1.66,4.81,4.81,0,0,1-.56,2.22,3.18,3.18,0,0,1-1.88,1.54,3,3,0,0,1,1.55,1.26,5.25,5.25,0,0,1,.45,2.47v1.07a7.79,7.79,0,0,0,.09,1.47,1.31,1.31,0,0,0,.61.9v.4h-3.65c-.1-.35-.17-.64-.21-.85a6.92,6.92,0,0,1-.14-1.37l0-1.47a3,3,0,0,0-.52-2,2.68,2.68,0,0,0-1.88-.5h-3.24v6.21h-3.23V112.82h7.58A6.82,6.82,0,0,1,246.91,113.23Zm-6.84,2.34v4.26h3.56a3.87,3.87,0,0,0,1.6-.26,1.79,1.79,0,0,0,.94-1.78,2,2,0,0,0-.91-1.94,3.36,3.36,0,0,0-1.53-.28Z"/><path class="cls-1" d="M279.62,112.34h2.55L276,128.66h-2.53Z"/><path class="cls-1" d="M294.54,112.34h2.54l-6.16,16.32h-2.53Z"/><path class="cls-1" d="M323.26,112.82l2.09,9.07.45,2.52.46-2.47,1.79-9.12h3.49l1.88,9.07.48,2.52.49-2.42,2.11-9.17h3.37l-4.45,15.84h-3.17l-1.91-9.26-.56-3.06-.56,3.06-1.91,9.26h-3.08l-4.49-15.84Z"/><path class="cls-1" d="M362.38,115.63H354V119h7.69v2.75H354v4.07h8.76v2.85h-12V112.82h11.62Z"/><path class="cls-1" d="M386,114.51a4.06,4.06,0,0,1,.73,2.42,3.54,3.54,0,0,1-.74,2.33,3.69,3.69,0,0,1-1.2.9,3.57,3.57,0,0,1,1.83,1.4,4.18,4.18,0,0,1,.61,2.32,4.6,4.6,0,0,1-.7,2.52,4.31,4.31,0,0,1-2.91,2,10.57,10.57,0,0,1-2.24.22h-7.14V112.82h7.66C383.78,112.85,385.15,113.41,386,114.51Zm-8.6,1.06v3.49h3.85a3.21,3.21,0,0,0,1.68-.39,1.5,1.5,0,0,0,.64-1.39,1.41,1.41,0,0,0-.85-1.46,6.08,6.08,0,0,0-1.87-.25Zm0,6.12v4.22h3.85a3.83,3.83,0,0,0,1.6-.28,2,2,0,0,0,1-2,1.71,1.71,0,0,0-1-1.7,3.89,3.89,0,0,0-1.58-.26Z"/><path class="cls-1" d="M423,113.17a5.19,5.19,0,0,1,2.7,2,7,7,0,0,1,1.13,2.55,12.32,12.32,0,0,1,.3,2.62,10.56,10.56,0,0,1-1.27,5.35,5.73,5.73,0,0,1-5.31,3h-6.83V112.82h6.83A8.32,8.32,0,0,1,423,113.17Zm-6.07,2.4v10.34H420a3.3,3.3,0,0,0,3.27-2.31,8.09,8.09,0,0,0,.51-3,7.47,7.47,0,0,0-.76-3.71c-.51-.87-1.52-1.3-3-1.3Z"/><path class="cls-1" d="M450.14,115.63h-8.38V119h7.69v2.75h-7.69v4.07h8.76v2.85h-12V112.82h11.61Z"/><path class="cls-1" d="M471.17,112.82h3.44l-5.4,15.84h-3.13l-5.35-15.84h3.53l3.44,12Z"/><path class="cls-1" d="M497.09,115.63h-8.38V119h7.69v2.75h-7.69v4.07h8.76v2.85h-12V112.82h11.62Z"/><path class="cls-1" d="M508.85,112.82h3.31v13h7.91v2.85H508.85Z"/><path class="cls-1" d="M543.28,127.25a8.21,8.21,0,0,1-10.38,0,8.55,8.55,0,0,1-2.4-6.53q0-4.35,2.4-6.53a8.21,8.21,0,0,1,10.38,0q2.4,2.18,2.4,6.53A8.55,8.55,0,0,1,543.28,127.25Zm-2.07-2.41a7.9,7.9,0,0,0,0-8.24,3.78,3.78,0,0,0-3.12-1.46,3.83,3.83,0,0,0-3.13,1.45,7.86,7.86,0,0,0,0,8.25,4.09,4.09,0,0,0,6.25,0Z"/><path class="cls-1" d="M567.63,121.8a6,6,0,0,1-4,1.16h-3.3v5.7h-3.28V112.82h6.8a5.46,5.46,0,0,1,3.74,1.23,4.74,4.74,0,0,1,1.4,3.79C569,119.71,568.56,121,567.63,121.8Zm-2.52-5.7a2.69,2.69,0,0,0-1.77-.53h-3v4.67h3a2.55,2.55,0,0,0,1.77-.57,2.36,2.36,0,0,0,.62-1.81A2.21,2.21,0,0,0,565.11,116.1Z"/><path class="cls-1" d="M592.18,115.63h-8.37V119h7.69v2.75h-7.69v4.07h8.76v2.85h-12V112.82h11.61Z"/><path class="cls-1" d="M614.1,113.23a3.94,3.94,0,0,1,1.48,1.11,5.12,5.12,0,0,1,.8,1.33,4.55,4.55,0,0,1,.29,1.66,4.7,4.7,0,0,1-.57,2.22,3.18,3.18,0,0,1-1.88,1.54,3,3,0,0,1,1.55,1.26,5.11,5.11,0,0,1,.46,2.47v1.07a9.14,9.14,0,0,0,.08,1.47,1.32,1.32,0,0,0,.62.9v.4h-3.66c-.1-.35-.17-.64-.21-.85a7.76,7.76,0,0,1-.14-1.37l0-1.47a3,3,0,0,0-.53-2,2.68,2.68,0,0,0-1.88-.5h-3.23v6.21H604V112.82h7.58A6.92,6.92,0,0,1,614.1,113.23Zm-6.84,2.34v4.26h3.56a3.79,3.79,0,0,0,1.59-.26,1.78,1.78,0,0,0,.94-1.78,2,2,0,0,0-.91-1.94,3.36,3.36,0,0,0-1.53-.28Z"/></svg>